# xmcd
#
# Track frame offsets: 
#        150
#        8642
#        19230
#        27865
#        39723
#        49106
#        65447
#        74589
#        82178
#        88948
#        97040
#        106301
#        115118
#        123859
#        132216
#        138277
#        153056
#        162698
#        172717
#        232785
#        242856
#        253761
#        262848
#        266821
#        295145
#        306807
#        316248
#        329363
#
# Disc length: 4475 seconds
#
# Revision: 0
# Processed by: cddbd v1.5.2PL0 Copyright (c) Steve Scherf et al.
# Submitted via: ExactAudioCopy v0.99pb3
#
DISCID=8211791c
DTITLE=GRAHAM JOHNSON piano - SCHUBERT Songs Vol.14, Calendar Year APR
DTITLE=JUN 1816
DYEAR=1900
DGENRE=Classical
TTITLE0=Lied in der Abwesenheit D416 ed. Mandyczewski (Stolberg-Stolbe
TTITLE0=rg) - Lucia Popp
TTITLE1=Entzückung D413 (Matthisson) - Toby Spence
TTITLE2=Geist der Liebe D414 (Matthisson) - Christoph Prégardien
TTITLE3=Klage D415 (Matthisson) - Christoph Prégardien
TTITLE4=Stimme der Liebe D418 (Matthisson) - Sarah Walker
TTITLE5=Julius an Theone D419 (Matthisson) - Christoph Prégardien
TTITLE6=Minnelied D429 (Hölty) - Lucia Popp
TTITLE7=Die frühe Liebe D430 (Hölty) - Christoph Prégardien
TTITLE8=Blumenlied D431 (Hölty) - Peter Schreier
TTITLE9=Der Leidende "Klage" D432 (Anonymous/Hölty) - Christoph Prégard
TTITLE9=ien
TTITLE10=Der Leidende "Klage" D432b (Anonymous/Hölty) - Christoph Préga
TTITLE10=rdien
TTITLE11=Seligkeit D433 (Hölty) - Brigitte Fassbaender
TTITLE12=Erntelied D434 (Hölty) - Peter Schreier
TTITLE13=Klage "An den Mond" D436 (Hölty) - Margaret Price
TTITLE14=Frühlingslied D398 (Hölty) - Lucia Popp
TTITLE15=Auf den Tod einer Nachtigall D399 (Hölty) - Peter Schreier
TTITLE16=Die Knabenzeit D400 (Hölty) - Christoph Prégardien
TTITLE17=Winterlied D401 (Hölty) - Lucia Popp
TTITLE18=Die Erwartung D159 (Schiller) - Dame Janet Baker
TTITLE19=Beitrag zur fünfzigjährigen Jubelfeier des Herrn von Salieri,
TTITLE19=ersten k.k. Hofkapellmesiter in Wien D407 Pt 1, Gütigster, B
TTITLE19=ester (Schubert) - Norman, Langridge, Koningsberger
TTITLE20=Beitrag zur fünfzigjährigen Jubelfeier des Herrn von Salieri,
TTITLE20=ersten k.k. Hofkapellmesiter in Wien D407 Pt 2, Gütigster, B
TTITLE20=ester (Schubert) - Spence, Norman, Maltman, Davies
TTITLE21=Beitrag zur fünfzigjährigen Jubelfeier des Herrn von Salieri,
TTITLE21=ersten k.k. Hofkapellmesiter in Wien D407 Pt 3, So Güt als W
TTITLE21=eisheeit strömen mild (Schubert) - Toby Spence
TTITLE22=Beitrag zur fünfzigjährigen Jubelfeier des Herrn von Salieri,
TTITLE22=ersten k.k. Hofkapellmesiter in Wien D407 Pt 4, Unser aller 
TTITLE22=Grosspapa (Schubert) - Spence, Norman, Maltman
TTITLE23=An die Sonne D439 (Uz) - Patricia Rozario, Catherine Wyn-Roger
TTITLE23=s, Jamie MacDougall, Michael George
TTITLE24=Das grosse Halleluja D442 (Klopstock) - Daniel Norman, Toby Sp
TTITLE24=ence, Christopher Maltman, Stephan Loges, Neal Davies
TTITLE25=Schlachtgesang D443 (Klopstock) - John Mark Ainsley, The Londo
TTITLE25=n Schubert Chorale, Stephen Layton
TTITLE26=Die Gestirne D444 (Klopstock) - Christine Brewer
TTITLE27=Edone D445 (Klopstock) - Christoph Prégardien
EXTD=
EXTT0=
EXTT1=
EXTT2=
EXTT3=
EXTT4=
EXTT5=
EXTT6=
EXTT7=
EXTT8=
EXTT9=
EXTT10=
EXTT11=
EXTT12=
EXTT13=
EXTT14=
EXTT15=
EXTT16=
EXTT17=
EXTT18=
EXTT19=
EXTT20=
EXTT21=
EXTT22=
EXTT23=
EXTT24=
EXTT25=
EXTT26=
EXTT27=
PLAYORDER=
